<?xml version="1.0" standalone="no"?>
<!DOCTYPE svg PUBLIC "-//W3C//DTD SVG 20010904//EN"
 "http://www.w3.org/TR/2001/REC-SVG-20010904/DTD/svg10.dtd">
<svg version="1.0" xmlns="http://www.w3.org/2000/svg"
 width="2018.000000pt" height="420.000000pt" viewBox="0 0 2018.000000 420.000000"
 preserveAspectRatio="xMidYMid meet">

<g transform="translate(0.000000,420.000000) scale(0.100000,-0.100000)"
fill="#000000" stroke="none">
<path d="M5647 3433 c-4 -3 -7 -217 -7 -473 0 -459 -3 -530 -22 -530 -5 0 -39
21 -76 48 -75 54 -97 67 -132 82 -14 5 -36 16 -50 24 -75 42 -278 86 -395 86
-115 0 -320 -45 -400 -87 -16 -8 -55 -28 -86 -44 -79 -41 -200 -147 -275 -244
-71 -90 -148 -235 -159 -300 -4 -22 -15 -53 -23 -70 -13 -24 -16 -68 -16 -215
-1 -167 2 -191 22 -248 12 -34 22 -68 22 -76 0 -25 89 -192 134 -252 83 -111
194 -211 288 -262 34 -17 66 -36 72 -41 6 -5 49 -21 96 -36 47 -15 96 -32 110
-38 14 -6 100 -13 192 -15 150 -4 174 -2 230 17 34 12 70 21 81 21 32 0 219
96 281 144 92 72 104 65 108 -69 l3 -70 128 -3 c76 -1 135 2 147 8 20 11 20
23 20 1315 0 1172 -2 1305 -16 1319 -12 13 -40 16 -143 16 -70 0 -131 -3 -134
-7z m-582 -1073 c111 -24 136 -33 205 -67 104 -53 231 -179 283 -283 45 -91
77 -217 77 -307 0 -107 -42 -256 -95 -338 -124 -192 -279 -293 -486 -317 -322
-37 -580 120 -713 435 -39 93 -40 340 -1 432 41 96 61 134 103 190 41 55 126
133 176 162 60 34 126 63 166 73 25 6 59 15 75 20 40 11 161 11 210 0z"/>
<path d="M8496 3182 c-14 -3 -16 -30 -16 -238 0 -143 -4 -243 -10 -255 -10
-17 -23 -19 -155 -19 -181 0 -175 6 -175 -162 0 -118 0 -119 26 -128 14 -6 88
-10 164 -10 116 0 139 -2 144 -16 3 -9 6 -287 6 -619 0 -599 0 -604 22 -662
50 -131 128 -210 260 -265 47 -19 76 -22 261 -26 153 -3 212 -1 222 8 20 16
22 269 3 288 -8 8 -67 12 -200 12 l-188 0 -38 34 -37 34 0 604 0 603 260 5
c143 3 266 9 273 13 8 6 12 43 12 125 0 175 22 162 -279 162 -195 0 -251 3
-260 13 -7 9 -12 97 -13 253 l-3 239 -131 5 c-73 3 -139 4 -148 2z"/>
<path d="M6885 2658 c-87 -14 -222 -57 -280 -89 -27 -16 -63 -35 -80 -43 -59
-28 -175 -133 -245 -220 -65 -82 -170 -272 -170 -309 0 -8 -9 -43 -20 -77 -17
-52 -20 -90 -20 -221 0 -92 5 -169 11 -186 6 -15 17 -54 25 -85 16 -67 74
-190 128 -271 99 -149 276 -289 446 -353 147 -55 161 -58 327 -62 144 -4 170
-2 229 17 37 12 76 21 86 21 33 0 213 93 281 146 38 29 75 50 83 47 9 -3 14
-30 16 -96 l3 -92 145 0 145 0 0 935 0 935 -139 3 c-105 2 -141 -1 -148 -10
-4 -7 -8 -57 -8 -111 0 -122 -8 -127 -89 -63 -195 153 -473 223 -726 184z
m250 -298 c133 -30 184 -51 277 -113 183 -123 300 -363 285 -583 -16 -225
-159 -447 -352 -547 -113 -58 -162 -69 -315 -69 -132 -1 -151 2 -210 25 -151
60 -220 109 -309 222 -91 115 -131 223 -138 370 -3 55 0 125 5 155 48 256 235
457 492 526 90 24 196 30 265 14z"/>
<path d="M10090 2650 c-79 -15 -155 -36 -205 -56 -101 -41 -282 -179 -350
-265 -25 -32 -52 -65 -60 -72 -23 -24 -95 -169 -120 -242 -88 -264 -68 -515
63 -767 113 -218 337 -403 572 -471 115 -33 142 -36 286 -37 115 0 153 4 204
20 34 11 69 20 77 20 22 0 170 68 228 105 17 11 48 34 71 52 66 53 74 47 74
-50 0 -51 5 -88 12 -95 17 -17 269 -17 286 0 16 16 18 1819 2 1849 -10 17 -22
19 -145 19 -160 0 -155 4 -155 -128 0 -66 -4 -91 -13 -95 -8 -3 -38 14 -68 38
-30 23 -90 61 -134 83 -203 104 -405 133 -625 92z m350 -304 c198 -62 344
-183 426 -356 51 -107 63 -163 64 -291 0 -182 -60 -328 -190 -460 -82 -82
-136 -117 -260 -166 -58 -23 -80 -26 -205 -26 -122 -1 -148 2 -205 22 -104 36
-201 94 -261 154 -72 71 -169 227 -169 270 0 8 -6 30 -14 48 -19 47 -28 172
-17 244 12 77 40 176 55 195 6 8 22 37 36 64 14 27 59 84 101 125 102 102 193
151 359 191 53 13 218 5 280 -14z"/>
<path d="M12210 2653 c-131 -26 -289 -95 -399 -176 -71 -52 -168 -152 -218
-225 -44 -64 -123 -224 -123 -247 0 -9 -9 -44 -21 -78 -18 -52 -21 -86 -21
-217 0 -85 5 -173 11 -195 26 -103 44 -161 57 -179 8 -11 14 -27 14 -36 1 -8
16 -40 35 -70 19 -30 39 -64 44 -75 17 -39 197 -213 266 -258 84 -55 202 -107
307 -136 117 -32 332 -30 462 4 52 13 103 28 113 34 10 5 45 22 78 38 94 44
173 101 258 186 75 76 84 90 69 113 -9 15 -256 134 -277 134 -9 0 -42 -22 -73
-50 -79 -70 -194 -124 -314 -145 -93 -16 -103 -16 -195 0 -89 16 -164 40 -203
65 -8 6 -24 15 -35 20 -80 40 -194 162 -239 255 -60 126 -61 130 -61 295 0
146 2 159 28 226 51 130 135 235 253 317 27 19 61 38 75 42 13 4 33 13 44 20
28 17 171 45 232 45 84 0 203 -30 292 -73 64 -31 103 -59 158 -114 41 -40 80
-73 87 -73 8 0 56 22 107 50 52 27 109 56 127 64 17 8 32 22 32 30 0 19 -70
106 -127 159 -26 23 -54 49 -63 57 -22 22 -137 93 -190 118 -174 82 -403 111
-590 75z"/>
<path d="M13995 2650 c-89 -18 -176 -43 -205 -60 -8 -5 -34 -18 -57 -30 -121
-61 -241 -163 -331 -281 -45 -60 -142 -243 -142 -269 0 -9 -10 -43 -21 -75
-19 -53 -21 -82 -21 -235 0 -154 2 -181 21 -228 12 -29 21 -62 21 -73 0 -20
61 -151 103 -219 47 -78 221 -253 288 -290 135 -74 232 -113 354 -140 22 -5
104 -9 183 -10 118 0 152 3 199 20 32 11 66 20 76 20 18 0 70 21 157 64 57 28
94 51 147 94 66 53 77 44 83 -63 l5 -90 134 -3 c90 -2 138 1 147 9 12 10 14
158 14 925 0 816 -2 914 -16 928 -23 24 -269 23 -278 0 -3 -9 -6 -55 -6 -102
0 -48 -4 -93 -9 -101 -10 -16 -36 -4 -96 44 -50 40 -180 107 -260 134 -151 51
-331 62 -490 31z m341 -304 c253 -66 432 -250 489 -501 35 -152 15 -304 -58
-444 -81 -157 -197 -257 -377 -328 -59 -23 -78 -26 -210 -25 -129 0 -152 2
-210 24 -122 46 -173 78 -260 167 -114 114 -163 212 -185 366 -43 297 100 567
370 699 38 18 94 36 175 55 69 17 174 12 266 -13z"/>
<path d="M19035 2654 c-155 -24 -309 -89 -419 -175 -27 -22 -59 -39 -72 -39
-23 0 -24 2 -24 91 0 133 4 129 -150 129 -118 0 -130 -2 -140 -19 -15 -28 -14
-2567 1 -2610 l11 -31 134 0 c74 0 135 1 136 3 1 1 5 218 8 482 l5 480 25 -3
c13 -1 38 -15 55 -31 68 -64 215 -133 364 -171 73 -19 103 -21 250 -18 126 4
175 9 203 21 21 9 46 17 58 17 57 0 281 132 379 224 85 80 241 324 241 378 0
10 9 40 20 67 14 35 21 87 26 178 8 154 -6 280 -42 378 -14 39 -30 84 -36 100
-6 17 -19 41 -30 54 -10 13 -18 27 -18 32 0 42 -210 264 -300 317 -30 18 -62
37 -70 42 -73 44 -178 80 -294 101 -124 22 -194 23 -321 3z m301 -308 c84 -22
154 -50 199 -78 86 -55 200 -172 225 -230 5 -13 14 -30 20 -38 53 -83 80 -246
62 -384 -12 -97 -43 -194 -74 -235 -10 -13 -18 -29 -18 -35 -1 -29 -185 -202
-240 -225 -14 -6 -32 -15 -40 -20 -8 -5 -42 -19 -75 -32 -54 -21 -75 -24 -210
-23 -137 1 -155 3 -215 27 -162 65 -242 129 -341 272 -59 86 -86 169 -105 321
-11 86 38 296 82 356 5 7 16 26 24 41 30 60 212 227 247 227 5 0 22 7 38 16
17 9 55 23 85 31 30 8 69 18 85 23 59 16 160 10 251 -14z"/>
<path d="M15390 2641 c-16 -30 -14 -1833 2 -1849 15 -15 251 -17 278 -2 11 6
35 38 55 73 20 34 56 94 80 132 25 39 49 79 54 90 6 11 30 52 55 90 25 39 61
97 80 130 20 33 47 78 61 100 13 22 41 67 60 100 20 33 56 92 81 130 24 39 48
79 54 90 6 11 24 40 40 65 16 25 34 54 40 65 6 11 30 52 55 90 24 39 60 98 80
133 37 62 57 76 69 46 3 -9 6 -284 6 -612 0 -563 2 -599 19 -639 42 -92 184
-125 270 -63 34 25 95 103 121 155 6 13 83 137 137 223 24 37 50 81 58 97 9
17 36 62 60 100 24 39 61 99 82 133 21 35 46 76 55 90 10 15 27 43 38 62 11
19 28 47 38 62 9 14 34 55 55 90 21 34 58 95 82 133 24 39 59 96 77 128 64
112 63 128 66 -618 2 -520 5 -671 15 -677 6 -4 71 -8 143 -8 100 0 134 3 143
14 9 10 11 234 9 862 l-3 849 -27 45 c-55 90 -161 129 -287 104 -43 -9 -113
-82 -151 -159 -11 -23 -95 -160 -100 -165 -6 -5 -89 -142 -103 -170 -4 -8 -27
-46 -52 -85 -24 -38 -61 -99 -82 -133 -21 -35 -45 -74 -53 -87 -8 -13 -32 -52
-53 -87 -20 -34 -48 -81 -62 -103 -13 -22 -35 -57 -47 -79 -25 -42 -31 -51
-69 -111 -28 -43 -56 -71 -64 -63 -3 2 -8 249 -11 549 l-6 544 -24 41 c-43 76
-116 114 -222 114 -93 0 -133 -30 -206 -150 -15 -25 -47 -76 -71 -115 -25 -38
-52 -83 -60 -100 -9 -16 -36 -61 -60 -100 -24 -38 -61 -99 -82 -133 -21 -35
-45 -74 -53 -87 -8 -13 -33 -53 -55 -90 -22 -37 -49 -81 -60 -100 -11 -18 -35
-59 -54 -91 -19 -33 -49 -79 -66 -104 -17 -25 -36 -56 -43 -70 -34 -67 -76
-120 -95 -120 -5 0 -8 243 -6 620 3 542 2 622 -11 630 -8 5 -72 10 -142 10
-116 0 -128 -2 -138 -19z"/>
</g>
</svg>
