<?xml version="1.0" standalone="no"?>
<!DOCTYPE svg PUBLIC "-//W3C//DTD SVG 20010904//EN"
 "http://www.w3.org/TR/2001/REC-SVG-20010904/DTD/svg10.dtd">
<svg version="1.0" xmlns="http://www.w3.org/2000/svg"
 width="383.000000pt" height="390.000000pt" viewBox="0 0 383.000000 390.000000"
 preserveAspectRatio="xMidYMid meet">

<g transform="translate(0.000000,390.000000) scale(0.100000,-0.100000)"
fill="#000000" stroke="none">
<path d="M1734 3830 c-871 -85 -1569 -772 -1664 -1639 -15 -137 -8 -386 15
-516 90 -512 381 -949 827 -1242 182 -120 383 -202 623 -256 134 -29 150 -31
370 -31 212 0 240 2 363 27 383 80 711 260 978 539 154 162 246 295 340 493
128 272 181 532 171 843 -6 198 -31 344 -88 516 -225 674 -787 1145 -1499
1256 -95 15 -331 20 -436 10z m416 -24 c607 -81 1134 -460 1406 -1011 132
-269 188 -508 187 -810 -1 -324 -70 -593 -222 -873 -343 -628 -1042 -1010
-1744 -952 -441 37 -814 203 -1135 505 -612 575 -746 1536 -315 2250 298 493
779 814 1333 890 128 17 361 18 490 1z"/>
<path d="M1702 3760 c-401 -51 -776 -234 -1055 -515 -238 -240 -386 -503 -466
-827 -42 -167 -51 -246 -52 -420 0 -357 82 -650 268 -951 250 -405 675 -703
1144 -803 169 -35 461 -45 624 -20 194 30 357 81 520 160 484 237 822 654 959
1181 71 277 64 625 -20 917 -184 638 -709 1119 -1368 1255 -136 27 -421 39
-554 23z m354 -70 c413 -37 766 -202 1059 -495 320 -320 486 -698 502 -1146
11 -293 -42 -546 -172 -814 -196 -406 -565 -728 -1000 -870 -553 -181 -1165
-68 -1611 296 -131 107 -250 238 -348 382 -120 177 -209 392 -257 617 -44 209
-37 516 17 735 44 179 137 385 252 558 94 143 300 348 445 445 342 228 720
328 1113 292z"/>
<path d="M1767 3599 c-198 -17 -384 -72 -582 -170 -288 -143 -528 -372 -689
-657 -139 -246 -206 -502 -206 -788 0 -293 54 -522 180 -762 87 -165 158 -260
300 -402 130 -130 237 -211 390 -293 400 -215 909 -247 1337 -83 537 205 912
650 1034 1226 33 153 33 437 0 599 -92 464 -354 844 -756 1098 -72 46 -247
127 -337 156 -104 35 -251 65 -377 77 -114 11 -164 11 -294 -1z m172 -95 c18
-13 22 -24 20 -58 -2 -22 3 -54 11 -69 31 -64 -28 -117 -131 -117 l-56 0 -7
61 c-8 80 -8 184 1 192 14 14 138 7 162 -9z m291 -41 c0 -23 -2 -24 -47 -18
-27 3 -58 8 -69 10 -16 4 -23 -1 -27 -17 -4 -12 -5 -24 -3 -25 2 -2 31 -8 65
-14 59 -11 73 -23 50 -46 -6 -6 -25 -7 -52 -2 -71 14 -77 12 -77 -20 0 -27 2
-29 63 -37 53 -8 62 -12 65 -31 3 -18 -2 -23 -18 -23 -23 0 -163 21 -168 25
-3 2 27 224 32 241 3 7 33 5 95 -5 85 -13 91 -16 91 -38z m-536 -83 c38 -61
67 -112 65 -114 -2 -2 -14 -7 -26 -10 -17 -5 -25 0 -39 24 -19 32 -36 36 -78
21 -18 -8 -25 -19 -28 -43 -2 -25 -8 -34 -25 -36 -28 -4 -29 4 -7 142 19 127
19 126 46 126 19 0 37 -22 92 -110z m693 63 c75 -24 107 -55 99 -96 -3 -18
-14 -39 -24 -47 -9 -8 -18 -28 -19 -45 -6 -83 -7 -95 -12 -95 -49 1 -62 30
-41 85 9 24 7 27 -25 41 -49 20 -52 19 -67 -28 -16 -47 -26 -54 -50 -36 -15
12 -12 24 24 126 22 61 45 112 51 112 6 0 35 -8 64 -17z m-957 -43 c25 -25 25
-36 3 -49 -13 -7 -23 -5 -36 7 -23 21 -72 6 -72 -23 0 -18 6 -20 67 -17 57 3
69 1 87 -17 32 -32 28 -83 -10 -115 -17 -14 -36 -27 -42 -27 -7 -1 -22 -3 -35
-4 -28 -3 -87 35 -87 55 0 21 39 24 55 5 7 -8 20 -15 29 -15 26 0 61 29 61 51
0 19 -4 20 -69 13 -63 -6 -70 -5 -90 17 -51 54 1 138 87 139 19 0 40 -8 52
-20z m735 -255 c416 -90 758 -393 891 -788 234 -691 -198 -1424 -919 -1562
-108 -21 -306 -21 -425 0 -355 61 -683 301 -849 621 -245 470 -160 1025 212
1400 179 180 399 293 663 340 95 17 327 11 427 -11z m-1115 -15 c24 -24 25
-38 4 -68 -29 -41 -94 -19 -94 33 0 24 33 55 57 55 7 0 22 -9 33 -20z m1804
-36 c34 -33 8 -84 -43 -84 -34 0 -51 17 -51 50 0 14 5 31 12 38 17 17 64 15
82 -4z m-2096 -230 c12 -8 22 -21 22 -28 0 -8 10 -16 23 -19 12 -3 40 -12 62
-21 40 -15 46 -29 21 -54 -11 -12 -19 -11 -44 2 -44 23 -58 20 -83 -15 -24
-34 -24 -34 34 -65 31 -16 32 -23 14 -48 -13 -17 -20 -14 -115 48 -56 36 -102
71 -102 77 0 15 77 126 92 132 25 10 54 7 76 -9z m2391 3 c27 -14 61 -71 61
-103 0 -12 -10 -34 -21 -48 -20 -25 -23 -26 -37 -12 -13 12 -13 20 -4 41 12
27 3 61 -22 77 -22 15 -65 7 -95 -17 -39 -33 -47 -60 -27 -90 13 -20 25 -25
55 -25 40 0 62 -23 42 -43 -13 -13 -74 -11 -100 3 -29 15 -61 68 -61 101 0 85
129 157 209 116z m-2579 -217 c18 -10 18 -12 -6 -71 -20 -50 -23 -64 -12 -70
26 -17 36 -8 58 46 22 54 45 70 57 40 3 -9 -4 -38 -15 -65 -20 -49 -20 -50 -2
-60 31 -17 37 -12 60 50 16 43 28 60 41 60 10 0 20 -4 23 -9 5 -8 -49 -160
-62 -173 -6 -6 -215 72 -229 86 -6 6 56 176 64 176 2 0 13 -4 23 -10z m2734
-55 c31 -78 32 -95 7 -126 -13 -16 -29 -23 -55 -23 -20 0 -36 -4 -36 -8 0 -5
-12 -14 -27 -20 -16 -7 -38 -21 -50 -31 l-22 -20 -11 27 c-13 36 -15 33 30 56
45 23 46 26 26 75 l-15 35 -43 -20 c-40 -18 -44 -18 -56 -3 -7 10 -11 21 -9
26 3 9 200 93 223 96 7 0 24 -28 38 -64z m-2815 -252 c-5 -26 -12 -55 -14 -64
-4 -11 2 -18 17 -22 28 -8 34 2 42 64 6 44 9 49 31 49 29 0 29 -1 14 -70 -6
-28 -9 -53 -7 -55 1 -2 15 -6 29 -10 25 -6 27 -4 34 41 11 75 21 93 45 87 16
-4 20 -11 16 -27 -2 -11 -10 -50 -17 -86 -6 -36 -14 -68 -18 -72 -10 -11 -234
37 -239 51 -5 14 15 121 29 158 7 20 12 22 28 14 16 -9 17 -16 10 -58z m2885
38 c5 -8 36 -156 36 -172 0 -4 -9 -9 -21 -12 -23 -6 -32 12 -43 86 -7 42 -10
48 -29 45 -23 -3 -24 -6 -16 -93 4 -35 1 -40 -17 -43 -19 -3 -23 3 -29 45 -9
65 -17 77 -48 69 l-25 -6 14 -57 c18 -78 18 -83 -10 -83 -22 0 -26 7 -37 58
-6 31 -12 73 -13 92 l-1 34 105 22 c125 26 127 26 134 15z m-2714 -270 c0 -32
-14 -41 -66 -41 -31 0 -34 -3 -34 -29 0 -16 -3 -36 -6 -45 -5 -12 5 -15 48
-18 45 -3 53 -6 53 -23 0 -19 -8 -20 -127 -23 l-128 -3 0 71 c0 69 11 107 34
122 16 11 70 10 82 -1 5 -6 30 -4 64 4 78 19 80 19 80 -14z m2644 -12 c108
-38 116 -43 116 -68 0 -23 -7 -29 -72 -52 -40 -15 -97 -36 -125 -48 l-53 -21
0 30 c0 25 6 32 36 45 31 13 35 18 32 47 -2 27 -10 36 -40 51 -25 11 -38 24
-38 37 0 28 12 26 144 -21z m6 -227 l95 -17 -2 -58 c-2 -68 -19 -106 -53 -126
-23 -12 -30 -12 -60 2 -21 9 -60 15 -95 15 -57 -1 -60 0 -60 23 0 22 5 24 51
27 44 2 53 6 58 25 14 54 8 64 -39 71 -39 6 -45 10 -45 32 0 29 14 30 150 6z
m-2691 -3 c56 -20 81 -115 45 -168 -36 -50 -142 -67 -201 -31 -59 35 -65 133
-11 173 44 33 67 -4 28 -43 -26 -26 -25 -54 2 -80 26 -24 68 -26 115 -4 31 15
34 20 31 53 -2 29 -9 39 -35 51 -33 15 -47 35 -37 51 7 12 24 11 63 -2z m31
-559 c24 -24 26 -53 4 -74 -18 -19 -65 -21 -82 -4 -20 20 -14 65 10 82 30 21
44 20 68 -4z m2558 -18 c28 -37 2 -82 -48 -82 -50 0 -69 66 -28 94 25 18 56
13 76 -12z m-2169 -248 c60 -50 66 -61 39 -78 -14 -8 -24 -4 -53 24 l-35 34
-23 -22 -22 -23 38 -32 c28 -23 36 -37 32 -49 -10 -25 -25 -22 -66 12 l-36 29
-23 -24 -24 -25 42 -36 c36 -31 40 -37 29 -55 -6 -10 -14 -19 -17 -19 -3 0
-32 24 -64 53 l-59 53 63 70 c35 38 75 84 89 101 14 18 28 33 30 33 2 0 29
-21 60 -46z m1812 -13 c16 -16 29 -35 29 -43 1 -7 25 -29 55 -48 58 -37 67
-53 36 -69 -14 -8 -24 -4 -46 19 -34 35 -55 38 -80 10 -18 -20 -18 -21 13 -53
35 -36 39 -49 19 -65 -10 -9 -34 11 -105 88 -51 54 -92 101 -92 104 0 3 19 23
43 45 52 50 86 53 128 12z m-1678 -93 c15 -12 15 -19 -7 -101 l-24 -88 22 18
c11 10 42 37 68 61 41 37 51 41 69 32 11 -6 19 -17 17 -23 -7 -27 -134 -226
-144 -227 -6 0 -16 6 -22 13 -8 9 -3 26 20 61 l30 49 -41 -32 c-22 -18 -43
-36 -46 -41 -10 -16 -35 2 -35 25 0 12 7 41 15 64 17 50 4 45 -26 -9 -24 -41
-39 -49 -57 -27 -7 9 -3 23 16 52 15 22 47 73 71 113 24 39 46 72 50 72 4 0
15 -6 24 -12z m1475 -30 c2 -11 -12 -26 -42 -43 -45 -26 -45 -27 -30 -51 20
-30 21 -30 66 1 33 23 38 23 52 9 20 -20 15 -28 -34 -55 -41 -23 -41 -21 -4
-77 1 -2 23 8 48 23 38 22 49 25 61 15 8 -7 15 -16 15 -20 0 -13 -132 -92
-140 -83 -23 27 -142 225 -137 229 3 3 29 21 58 40 57 36 82 39 87 12z m-1191
-122 c55 -26 71 -53 59 -100 -15 -60 -56 -80 -127 -61 -23 6 -27 3 -39 -35
-15 -45 -34 -60 -52 -42 -8 8 2 45 38 137 27 69 54 125 59 125 6 0 33 -11 62
-24z m979 -5 c68 -42 98 -177 50 -226 -21 -21 -102 -54 -109 -44 -15 18 -95
245 -89 251 10 10 82 36 102 37 8 1 29 -8 46 -18z m-699 -87 c16 -22 17 -68 1
-97 -6 -12 -13 -53 -14 -91 -2 -37 -5 -70 -8 -73 -2 -3 -13 0 -24 6 -16 9 -19
18 -14 57 5 50 -4 64 -45 64 -18 0 -23 -7 -28 -37 -4 -21 -8 -44 -10 -50 -5
-17 -45 -17 -45 -1 0 35 44 254 53 259 16 11 120 -18 134 -37z m502 -87 c22
-111 23 -129 11 -137 -23 -15 -24 -14 -81 60 -30 39 -55 67 -57 62 -2 -6 4
-38 12 -73 16 -70 14 -79 -14 -79 -22 0 -22 1 -46 135 -8 50 -18 100 -21 111
-3 16 1 23 17 27 16 4 32 -9 77 -64 30 -38 57 -68 59 -67 1 2 -4 32 -12 67
-17 70 -13 94 13 89 14 -3 23 -30 42 -131z m-278 93 c25 0 29 -4 29 -26 0 -26
-1 -26 -55 -22 l-55 5 0 -34 c0 -33 0 -33 50 -33 47 0 50 -2 50 -25 0 -23 -3
-25 -49 -25 -45 0 -49 -2 -54 -27 -3 -16 -4 -30 -2 -32 4 -3 44 -8 93 -10 18
-1 23 -6 20 -23 -3 -24 -4 -24 -118 -20 l-41 2 2 133 c0 72 3 136 6 141 3 4
26 6 51 2 25 -3 58 -6 73 -6z"/>
<path d="M1820 3445 c0 -25 3 -26 43 -23 34 2 42 7 42 23 0 16 -8 21 -42 23
-40 3 -43 2 -43 -23z"/>
<path d="M1830 3340 c0 -27 3 -30 33 -30 42 0 70 20 61 43 -4 12 -18 17 -50
17 -42 0 -44 -1 -44 -30z"/>
<path d="M1610 3383 c0 -23 5 -33 15 -33 19 0 19 21 0 46 -14 18 -14 17 -15
-13z"/>
<path d="M2341 3378 c-10 -27 -7 -32 35 -46 23 -7 35 -7 43 1 20 20 12 38 -24
53 -44 18 -44 18 -54 -8z"/>
<path d="M1725 3099 c-373 -74 -667 -298 -830 -633 -30 -61 -66 -156 -81 -211
-25 -90 -27 -117 -28 -275 0 -148 3 -188 22 -262 44 -176 108 -310 215 -448
291 -375 787 -528 1247 -385 396 124 707 480 781 895 17 96 14 300 -5 403 -73
384 -358 725 -716 856 -148 54 -199 63 -380 67 -96 1 -197 -1 -225 -7z m352
-15 c383 -56 689 -281 858 -629 91 -186 126 -385 105 -594 -24 -249 -126 -472
-300 -655 -235 -247 -526 -366 -865 -353 -296 12 -547 124 -755 336 -145 149
-236 310 -291 518 -26 97 -37 324 -20 433 66 431 394 800 811 914 171 46 295
55 457 30z"/>
<path d="M2113 2984 c-8 -21 13 -42 28 -27 13 13 5 43 -11 43 -6 0 -13 -7 -17
-16z"/>
<path d="M2040 2970 c0 -23 25 -27 33 -6 7 16 -1 26 -20 26 -7 0 -13 -9 -13
-20z"/>
<path d="M1965 2970 c-9 -14 1 -27 26 -33 15 -4 19 -2 15 10 -3 8 -6 19 -6 24
0 12 -27 12 -35 -1z"/>
<path d="M1655 2950 c-8 -14 3 -30 21 -30 8 0 14 9 14 20 0 21 -24 28 -35 10z"/>
<path d="M1732 2943 c4 -21 33 -25 33 -3 0 8 -8 16 -18 18 -14 3 -18 -1 -15
-15z"/>
<path d="M1800 2942 c0 -10 -4 -23 -10 -30 -7 -9 -7 -9 2 -2 7 6 20 10 30 10
11 0 18 7 18 20 0 13 -7 20 -20 20 -13 0 -20 -7 -20 -18z"/>
<path d="M1861 2918 c-23 -20 -23 -22 -5 -35 10 -7 21 -13 26 -13 12 0 30 40
24 56 -7 19 -18 18 -45 -8z"/>
<path d="M2062 2920 c2 -7 -7 -19 -19 -25 -13 -7 -32 -20 -43 -30 -20 -18 -21
-18 -27 3 -7 28 -33 29 -33 2 0 -11 7 -20 15 -20 22 0 18 -13 -10 -40 -22 -20
-27 -21 -54 -10 -41 16 -59 39 -42 50 8 4 10 13 7 19 -12 18 -26 13 -26 -10 0
-21 -1 -21 -26 -5 -14 10 -31 15 -37 13 -7 -3 1 -10 16 -16 16 -6 26 -15 23
-20 -3 -5 1 -8 10 -7 18 1 61 -50 51 -61 -4 -4 -13 -1 -19 5 -19 19 -28 14
-28 -13 0 -27 18 -33 39 -12 11 10 12 -17 6 -148 -4 -88 -10 -164 -13 -169 -3
-6 -12 16 -19 49 -11 46 -11 60 -1 66 7 4 9 11 5 15 -3 4 -13 2 -20 -4 -8 -7
-17 -8 -22 -4 -4 4 -3 -3 4 -15 13 -25 15 -83 3 -83 -5 0 -40 22 -79 49 -72
51 -110 104 -100 142 3 10 1 22 -4 25 -14 8 -11 -63 5 -101 12 -27 12 -34 1
-38 -27 -11 -125 23 -125 43 0 6 -7 10 -16 10 -14 0 -14 -3 -4 -15 11 -13 10
-18 -6 -30 -14 -10 -16 -16 -7 -25 13 -14 33 -5 33 16 0 18 -1 18 51 -5 24
-10 64 -22 89 -26 53 -8 119 -48 174 -104 l38 -39 -7 -176 c-4 -97 -10 -178
-14 -180 -3 -2 -17 1 -31 6 -24 9 -24 10 -7 23 13 9 17 20 12 35 -6 18 -12 20
-33 15 -37 -9 -38 -12 -16 -36 19 -21 19 -21 -11 -17 -66 7 -32 88 37 88 33 0
38 3 38 24 0 36 -26 39 -55 8 l-25 -27 0 34 c0 22 8 43 21 57 26 28 19 57 -13
52 -20 -3 -22 -9 -22 -78 -1 -41 -5 -76 -11 -78 -11 -4 -14 1 -47 73 -12 28
-24 53 -26 58 -2 4 7 7 21 7 30 0 42 24 20 41 -12 11 -18 9 -32 -9 -13 -18
-19 -20 -29 -10 -16 16 -15 28 3 28 8 0 15 7 15 15 0 20 -17 19 -28 -2 -9 -15
-13 -14 -41 7 -21 14 -30 28 -26 38 5 13 3 13 -11 1 -14 -11 -18 -11 -29 4
-10 13 -14 15 -18 5 -3 -10 -9 -9 -24 5 -26 22 -56 23 -51 0 2 -12 14 -18 43
-19 21 0 41 -6 43 -12 2 -7 12 -12 21 -12 10 0 33 -13 52 -29 25 -22 30 -33
23 -43 -16 -20 -25 -48 -15 -48 5 0 11 9 14 20 15 58 66 -33 67 -118 0 -63 -8
-68 -80 -53 -124 27 -203 89 -233 182 -9 31 -14 64 -11 74 6 14 3 16 -17 10
-33 -10 -34 -12 -17 -32 34 -41 33 -46 -8 -38 -50 9 -57 14 -45 29 7 9 7 16
-1 24 -19 19 -31 14 -25 -9 3 -12 0 -22 -9 -26 -24 -9 -15 -22 15 -21 42 1 59
-12 35 -29 -17 -12 -17 -15 -2 -29 18 -18 38 -11 38 12 0 27 19 14 59 -38 75
-102 121 -131 260 -164 77 -19 95 -35 67 -62 -15 -15 -16 -15 -16 2 0 25 -34
16 -38 -11 -3 -18 1 -21 20 -16 l23 6 -24 -26 c-13 -14 -28 -25 -34 -24 -5 1
-11 -3 -14 -10 -3 -7 3 -9 16 -6 16 4 21 1 21 -16 0 -22 14 -28 26 -10 3 6 1
16 -5 22 -14 14 76 99 99 92 9 -3 29 -18 43 -33 l27 -28 -9 -135 c-10 -146
-22 -189 -73 -252 -27 -34 -29 -41 -16 -54 13 -12 22 -11 70 13 70 34 102 29
118 -21 6 -19 10 -48 8 -64 -2 -17 0 -30 5 -31 48 -2 57 1 57 23 0 46 33 58
84 32 31 -16 57 -13 75 9 9 10 -1 21 -43 49 -85 56 -98 94 -104 287 l-5 156
44 38 c64 54 81 55 133 10 37 -33 44 -44 39 -66 -3 -21 -1 -28 11 -28 9 0 16
8 16 20 0 11 7 20 15 20 8 0 15 5 15 11 0 5 -4 8 -8 5 -11 -6 -52 21 -52 35 0
5 6 9 14 9 8 0 17 7 20 15 7 20 -23 33 -34 15 -9 -15 -30 -5 -30 15 0 8 12 17
28 20 15 4 54 15 87 27 72 25 134 26 147 4 5 -9 14 -14 19 -11 5 4 7 10 4 15
-3 5 -1 11 5 15 23 14 7 23 -32 17 l-42 -5 39 47 c95 114 104 123 105 99 0
-28 17 -38 35 -23 21 17 19 27 -6 35 -30 10 -10 25 37 29 51 5 53 6 27 16 -15
6 -20 15 -16 29 4 15 1 21 -12 21 -13 0 -16 -6 -11 -24 5 -21 1 -26 -39 -39
-40 -14 -45 -14 -45 -1 0 25 -17 6 -23 -25 -15 -74 -148 -165 -242 -166 l-50
0 0 76 c1 55 6 84 18 103 21 31 37 33 44 6 3 -11 9 -20 14 -20 13 0 11 13 -7
38 -18 26 -16 31 34 65 37 26 40 27 69 12 17 -8 33 -25 36 -36 8 -31 52 -22
52 11 0 23 -4 25 -43 26 -23 0 -45 4 -48 7 -14 13 10 27 47 27 27 0 39 4 39
14 0 24 -18 28 -44 11 -13 -9 -28 -15 -32 -14 -5 1 -17 -1 -28 -6 -11 -5 -21
-3 -26 5 -5 8 -9 9 -14 1 -4 -6 -2 -11 3 -11 22 0 10 -19 -25 -39 -42 -25 -44
-25 -44 -6 0 8 -7 15 -15 15 -8 0 -15 -7 -15 -15 0 -8 7 -15 15 -15 17 0 19
-9 4 -30 -8 -13 -12 -12 -26 8 -18 26 -38 29 -47 6 -9 -22 1 -34 29 -34 l24 0
-29 -62 c-17 -35 -30 -69 -30 -76 0 -8 -8 -12 -17 -10 -16 3 -18 14 -16 86 2
74 0 82 -16 82 -10 0 -25 -7 -32 -16 -12 -15 -11 -19 9 -32 16 -11 22 -24 22
-53 0 -45 -5 -48 -29 -17 -21 25 -51 19 -51 -11 0 -22 20 -32 50 -24 30 8 74
-39 66 -70 -4 -17 -21 -27 -73 -44 -79 -26 -83 -23 -83 58 0 31 -3 96 -6 145
l-7 89 44 52 c62 73 126 119 179 128 25 4 67 18 93 31 58 29 53 28 60 4 3 -13
10 -18 21 -14 20 8 21 34 1 34 -22 0 -18 28 5 42 11 7 20 19 20 28 0 9 -6 7
-16 -8 -9 -13 -22 -21 -30 -18 -8 3 -11 0 -8 -8 6 -17 -71 -56 -110 -56 -25 0
-27 3 -22 23 14 50 18 114 7 121 -6 4 -11 3 -11 -2 0 -6 -9 -8 -20 -5 -15 4
-18 9 -10 18 13 16 -11 38 -34 29 -31 -12 -18 -45 24 -61 31 -12 40 -21 40
-40 0 -47 -162 -192 -181 -162 -11 18 -11 32 0 62 8 21 6 26 -12 31 -24 6 -37
-2 -20 -12 13 -8 6 -122 -7 -122 -13 0 -18 41 -26 205 -6 138 -4 165 10 192
22 43 34 49 46 21 9 -21 10 -20 5 7 -5 26 -1 32 29 49 19 10 39 15 45 12 6 -4
11 -2 11 4 0 7 13 10 33 8 17 -2 32 2 32 7 0 13 -58 13 -67 1 -4 -6 -13 -4
-23 4 -13 11 -16 11 -13 0z m-153 -262 c-1 -56 -2 -59 -9 -28 -8 31 -3 90 6
90 2 0 4 -28 3 -62z m-19 -740 c0 -149 -3 -189 -12 -180 -21 21 -15 372 7 372
3 0 5 -86 5 -192z"/>
<path d="M1640 2885 c0 -8 9 -15 20 -15 24 0 27 15 4 24 -22 9 -24 8 -24 -9z"/>
<path d="M1735 2890 c-4 -6 -16 -8 -27 -4 -18 5 -19 4 -7 -8 16 -18 46 -13 46
8 0 17 -4 18 -12 4z"/>
<path d="M2110 2880 c0 -3 10 -16 21 -29 19 -20 23 -21 36 -8 9 8 13 19 9 25
-7 11 -66 22 -66 12z"/>
<path d="M2065 2860 c-4 -7 -3 -16 3 -22 14 -14 45 -2 40 15 -6 16 -34 21 -43
7z"/>
<path d="M1648 2839 c-16 -10 -1 -41 18 -37 9 2 20 13 25 25 6 18 4 21 -12 20
-11 -1 -25 -4 -31 -8z"/>
<path d="M1715 2830 c-3 -5 -3 -14 0 -20 10 -17 32 -11 38 10 4 15 0 20 -13
20 -11 0 -22 -4 -25 -10z"/>
<path d="M2107 2813 c-9 -8 12 -33 28 -33 14 0 27 25 18 34 -8 8 -38 8 -46 -1z"/>
<path d="M1796 2793 c-6 -14 -5 -15 5 -6 7 7 10 15 7 18 -3 3 -9 -2 -12 -12z"/>
<path d="M2039 2778 c7 -35 33 -45 39 -15 2 10 -3 17 -12 17 -9 0 -16 7 -16
15 0 8 -4 15 -9 15 -5 0 -5 -15 -2 -32z"/>
<path d="M1982 2788 c-18 -18 -14 -38 8 -38 13 0 20 7 20 19 0 25 -13 34 -28
19z"/>
<path d="M1670 2776 c0 -23 18 -29 40 -13 21 14 21 14 -2 21 -33 9 -38 8 -38
-8z"/>
<path d="M2353 2744 c-4 -10 1 -22 10 -29 10 -7 17 -17 17 -24 0 -6 4 -11 9
-11 5 0 13 -9 16 -20 10 -31 20 -24 22 16 1 19 7 42 13 49 12 15 6 35 -11 35
-5 0 -9 -18 -9 -41 0 -52 -24 -48 -28 4 -3 39 -27 51 -39 21z"/>
<path d="M2294 2735 c-3 -8 1 -24 9 -35 15 -21 15 -21 21 5 10 39 -17 66 -30
30z"/>
<path d="M1390 2718 c0 -7 5 -20 10 -28 8 -12 10 -9 10 13 0 15 -4 27 -10 27
-5 0 -10 -6 -10 -12z"/>
<path d="M1440 2693 l0 -37 20 22 c11 12 20 28 20 37 0 8 -9 15 -20 15 -16 0
-20 -7 -20 -37z"/>
<path d="M2469 2714 c-10 -13 -10 -17 2 -25 18 -11 33 -6 37 13 4 22 -24 30
-39 12z"/>
<path d="M1500 2708 c0 -7 4 -19 9 -27 7 -11 11 -10 20 7 15 28 14 32 -9 32
-11 0 -20 -6 -20 -12z"/>
<path d="M1336 2681 c-3 -5 0 -13 7 -19 15 -13 42 1 33 17 -9 13 -33 15 -40 2z"/>
<path d="M2335 2680 c-8 -13 14 -42 26 -34 5 3 9 14 9 25 0 20 -24 26 -35 9z"/>
<path d="M1409 2656 c6 -7 9 -22 5 -32 -5 -18 -5 -18 10 0 16 20 6 46 -16 46
-6 0 -6 -6 1 -14z"/>
<path d="M1460 2651 c0 -11 4 -22 9 -25 12 -8 34 21 26 34 -11 17 -35 11 -35
-9z"/>
<path d="M2240 2656 c0 -17 5 -21 44 -30 26 -6 27 -6 12 9 -9 9 -16 21 -16 26
0 5 -9 9 -20 9 -11 0 -20 -6 -20 -14z"/>
<path d="M1546 2635 c-17 -26 -17 -26 11 -19 35 9 37 10 30 29 -9 22 -22 19
-41 -10z"/>
<path d="M2087 2654 c-8 -8 1 -24 14 -24 5 0 9 7 9 15 0 15 -12 20 -23 9z"/>
<path d="M1710 2641 c0 -17 18 -21 24 -6 3 9 0 15 -9 15 -8 0 -15 -4 -15 -9z"/>
<path d="M2455 2640 c-10 -16 16 -43 28 -31 11 11 2 41 -12 41 -5 0 -13 -5
-16 -10z"/>
<path d="M1760 2624 c0 -8 5 -12 10 -9 6 3 10 10 10 16 0 5 -4 9 -10 9 -5 0
-10 -7 -10 -16z"/>
<path d="M2032 2628 c6 -18 28 -21 28 -4 0 9 -7 16 -16 16 -9 0 -14 -5 -12
-12z"/>
<path d="M1354 2609 c-8 -14 11 -33 25 -25 6 4 11 14 11 22 0 16 -26 19 -36 3z"/>
<path d="M1685 2610 c-3 -5 1 -10 10 -10 9 0 13 5 10 10 -3 6 -8 10 -10 10 -2
0 -7 -4 -10 -10z"/>
<path d="M1805 2610 c-3 -5 1 -10 9 -10 9 0 16 5 16 10 0 6 -4 10 -9 10 -6 0
-13 -4 -16 -10z"/>
<path d="M1987 2614 c-8 -8 1 -24 14 -24 5 0 9 7 9 15 0 15 -12 20 -23 9z"/>
<path d="M2115 2610 c-3 -5 -2 -10 4 -10 5 0 13 5 16 10 3 6 2 10 -4 10 -5 0
-13 -4 -16 -10z"/>
<path d="M1515 2590 c-3 -5 -1 -10 4 -10 6 0 11 5 11 10 0 6 -2 10 -4 10 -3 0
-8 -4 -11 -10z"/>
<path d="M2240 2580 c0 -23 22 -27 39 -7 13 16 5 27 -21 27 -11 0 -18 -7 -18
-20z"/>
<path d="M1552 2583 c-10 -4 -10 -8 -1 -19 17 -20 39 -17 39 6 0 20 -12 24
-38 13z"/>
<path d="M1790 2580 c0 -5 5 -10 11 -10 5 0 7 5 4 10 -3 6 -8 10 -11 10 -2 0
-4 -4 -4 -10z"/>
<path d="M2387 2584 c-8 -8 1 -24 14 -24 5 0 9 7 9 15 0 15 -12 20 -23 9z"/>
<path d="M2430 2566 c0 -30 16 -42 35 -26 17 14 12 25 -16 40 -16 9 -19 7 -19
-14z"/>
<path d="M1435 2570 c-8 -13 -1 -24 14 -19 6 3 7 10 2 18 -6 10 -10 10 -16 1z"/>
<path d="M1682 2569 c2 -6 8 -10 13 -10 5 0 11 4 13 10 2 6 -4 11 -13 11 -9 0
-15 -5 -13 -11z"/>
<path d="M2010 2570 c0 -5 10 -10 23 -10 18 0 19 2 7 10 -19 13 -30 13 -30 0z"/>
<path d="M2120 2565 c12 -15 30 -12 30 6 0 5 -10 9 -21 9 -18 0 -19 -2 -9 -15z"/>
<path d="M1726 2562 c-3 -6 -1 -14 5 -17 15 -10 25 3 12 16 -7 7 -13 7 -17 1z"/>
<path d="M1381 2551 c-16 -10 -6 -31 15 -31 8 0 14 9 14 20 0 22 -7 25 -29 11z"/>
<path d="M2070 2550 c0 -5 7 -10 15 -10 8 0 15 5 15 10 0 6 -7 10 -15 10 -8 0
-15 -4 -15 -10z"/>
<path d="M2373 2493 c-15 -5 -17 -49 -4 -57 17 -11 41 6 41 29 0 24 -16 35
-37 28z"/>
<path d="M2263 2454 c-4 -11 1 -22 13 -31 16 -12 20 -12 31 3 6 9 9 22 6 30
-7 19 -42 18 -50 -2z"/>
<path d="M1456 2447 c-17 -12 -16 -14 3 -37 18 -21 22 -23 31 -10 22 34 -3 69
-34 47z"/>
<path d="M2183 2443 c-21 -8 -16 -53 6 -53 10 0 34 -2 52 -5 30 -5 31 -4 11 5
-13 5 -26 19 -29 29 -5 21 -21 30 -40 24z"/>
<path d="M1543 2414 c-3 -8 -1 -20 5 -26 16 -16 42 -2 42 22 0 24 -38 28 -47
4z"/>
<path d="M1277 2404 c-4 -4 -7 -22 -7 -41 0 -28 4 -33 23 -33 39 0 53 15 41
47 -9 27 -42 42 -57 27z"/>
<path d="M1628 2382 c-15 -29 -15 -29 16 -28 26 1 31 5 31 26 0 36 -30 38 -47
2z"/>
<path d="M2671 2357 c-9 -11 -8 -17 5 -28 13 -11 17 -10 25 2 17 28 -9 51 -30
26z"/>
<path d="M1142 2348 c-9 -9 -9 -15 0 -25 12 -15 -4 -63 -22 -63 -5 0 -10 -7
-10 -15 0 -8 -7 -15 -15 -15 -8 0 -15 -4 -15 -8 0 -5 -12 -14 -27 -21 -20 -9
-23 -15 -14 -24 9 -9 17 -5 35 17 12 16 27 26 33 23 6 -4 18 10 28 31 10 20
24 49 31 63 11 22 11 29 0 38 -9 7 -16 7 -24 -1z"/>
<path d="M2737 2324 c-14 -14 -7 -35 11 -32 9 2 17 10 17 17 0 16 -18 25 -28
15z"/>
<path d="M1087 2313 c-12 -11 -8 -31 7 -36 8 -3 17 0 20 8 5 15 -17 39 -27 28z"/>
<path d="M1404 2305 c-9 -23 3 -45 26 -45 27 0 45 42 21 52 -26 11 -41 9 -47
-7z"/>
<path d="M2323 2314 c-10 -4 -10 -11 -2 -25 14 -27 54 -22 54 6 0 20 -27 29
-52 19z"/>
<path d="M2650 2295 c0 -8 5 -15 10 -15 6 0 10 7 10 15 0 8 -4 15 -10 15 -5 0
-10 -7 -10 -15z"/>
<path d="M1176 2291 c-4 -7 -5 -15 -2 -18 9 -9 19 4 14 18 -4 11 -6 11 -12 0z"/>
<path d="M2698 2290 c6 -8 12 -22 12 -32 0 -10 11 -23 24 -28 13 -5 31 -19 39
-30 9 -12 20 -19 27 -15 14 9 -6 35 -26 35 -8 0 -14 5 -14 10 0 6 -7 10 -15
10 -8 0 -15 6 -15 13 0 8 -10 22 -22 33 -13 10 -17 12 -10 4z"/>
<path d="M1487 2283 c-4 -3 -7 -15 -7 -25 0 -23 45 -25 54 -1 9 23 -29 45 -47
26z"/>
<path d="M2790 2265 c-10 -12 -9 -16 5 -21 19 -8 40 9 31 25 -10 15 -21 14
-36 -4z"/>
<path d="M1020 2251 c0 -15 6 -21 21 -21 14 0 19 5 17 17 -5 26 -38 29 -38 4z"/>
<path d="M2410 2260 c-8 -5 -39 -14 -67 -20 -47 -10 -52 -13 -43 -30 6 -10 10
-28 10 -39 0 -15 6 -21 24 -21 40 0 43 43 3 51 -10 2 -19 9 -20 14 -3 15 72
18 89 5 20 -18 44 -4 44 25 0 26 -14 32 -40 15z"/>
<path d="M1155 2250 c-3 -5 1 -10 9 -10 9 0 16 5 16 10 0 6 -4 10 -9 10 -6 0
-13 -4 -16 -10z"/>
<path d="M1407 2233 c-5 -9 10 -53 17 -53 3 0 19 8 35 18 l30 18 -33 12 c-38
14 -43 15 -49 5z"/>
<path d="M2611 2231 c-8 -5 -9 -11 -3 -15 5 -3 12 1 16 9 6 17 6 18 -13 6z"/>
<path d="M1217 2200 c-15 -55 0 -97 26 -71 8 8 7 17 -1 33 -6 13 -13 32 -14
43 -3 18 -5 17 -11 -5z"/>
<path d="M2236 2201 c-22 -25 -17 -55 10 -59 27 -4 34 15 19 51 -11 27 -12 27
-29 8z"/>
<path d="M2670 2200 c0 -15 5 -20 18 -18 9 2 17 10 17 18 0 8 -8 16 -17 18
-13 2 -18 -3 -18 -18z"/>
<path d="M2723 2183 c-1 -36 20 -54 39 -35 8 8 4 19 -14 40 l-24 29 -1 -34z"/>
<path d="M1135 2200 c-8 -14 3 -30 21 -30 8 0 14 9 14 20 0 21 -24 28 -35 10z"/>
<path d="M1518 2203 c29 -6 28 -19 -3 -27 -29 -7 -34 -40 -9 -50 23 -9 41 9
46 44 5 30 -7 41 -40 39 -10 -1 -8 -4 6 -6z"/>
<path d="M1096 2181 c-20 -22 -16 -51 8 -51 18 0 24 19 17 48 l-6 24 -19 -21z"/>
<path d="M2600 2175 c-10 -18 -11 -28 -3 -36 17 -17 32 -2 31 31 -1 37 -10 38
-28 5z"/>
<path d="M1585 2159 c-8 -33 6 -52 32 -42 19 7 16 37 -6 57 -18 17 -19 16 -26
-15z"/>
<path d="M1163 2157 c-18 -12 -31 -29 -30 -37 3 -22 31 -18 35 5 2 11 11 28
20 38 19 21 15 21 -25 -6z"/>
<path d="M2660 2162 c5 -9 11 -25 14 -35 3 -10 12 -17 19 -15 23 8 17 33 -13
50 -28 16 -29 16 -20 0z"/>
<path d="M2034 2085 c-14 -36 31 -48 60 -16 15 17 15 19 1 25 -28 10 -55 7
-61 -9z"/>
<path d="M2496 2068 c-36 -52 0 -96 51 -62 32 20 29 50 -6 69 -28 14 -31 14
-45 -7z"/>
<path d="M2278 2002 c-6 -30 -2 -62 9 -62 7 0 10 6 7 14 -3 8 -1 17 5 21 6 3
11 10 11 15 0 10 -29 22 -32 12z"/>
<path d="M2342 1970 c-12 -20 -11 -21 15 -18 17 2 28 9 28 18 0 23 -29 23 -43
0z"/>
<path d="M1570 1956 c0 -8 5 -18 10 -21 6 -4 8 -11 5 -16 -4 -5 -1 -9 4 -9 6
0 11 3 11 8 0 4 3 17 6 30 5 18 2 22 -15 22 -12 0 -21 -6 -21 -14z"/>
<path d="M1495 1950 c-9 -15 4 -30 26 -30 22 0 24 11 7 28 -15 15 -25 15 -33
2z"/>
<path d="M2380 1925 c0 -20 4 -26 18 -23 9 2 17 12 17 23 0 11 -8 21 -17 23
-14 3 -18 -3 -18 -23z"/>
<path d="M2320 1910 c0 -18 3 -19 20 -10 22 12 18 30 -6 30 -8 0 -14 -9 -14
-20z"/>
<path d="M1464 1906 c-7 -19 3 -36 22 -36 10 0 14 8 12 22 -4 26 -26 36 -34
14z"/>
<path d="M1520 1886 c0 -15 24 -28 34 -19 13 14 5 33 -14 33 -11 0 -20 -6 -20
-14z"/>
<path d="M2410 1880 c-8 -5 -25 -10 -36 -10 -12 0 -27 -7 -34 -15 -8 -9 -8
-15 -2 -15 6 0 12 6 15 13 3 9 7 9 20 -2 11 -9 17 -10 17 -2 0 6 11 11 25 11
16 0 25 6 25 15 0 17 -9 19 -30 5z"/>
<path d="M2295 1870 c-3 -5 -1 -10 4 -10 6 0 11 5 11 10 0 6 -2 10 -4 10 -3 0
-8 -4 -11 -10z"/>
<path d="M1435 1851 c-8 -13 6 -19 63 -25 23 -3 42 -1 42 5 0 5 -3 9 -7 10 -5
0 -19 2 -33 3 -14 2 -32 6 -41 10 -10 4 -20 3 -24 -3z"/>
<path d="M1565 1841 c-3 -6 1 -11 9 -11 9 0 16 -7 16 -15 0 -8 5 -15 10 -15
16 0 12 15 -9 34 -12 11 -21 14 -26 7z"/>
<path d="M2260 1840 c0 -5 4 -10 9 -10 6 0 13 5 16 10 3 6 -1 10 -9 10 -9 0
-16 -4 -16 -10z"/>
<path d="M2394 1829 c-3 -6 0 -17 8 -25 13 -13 16 -13 27 0 10 12 9 17 -8 25
-14 8 -22 8 -27 0z"/>
<path d="M2326 1805 c-3 -9 1 -18 10 -22 19 -7 28 2 21 22 -8 19 -23 19 -31 0z"/>
<path d="M1447 1803 c-14 -13 -6 -33 13 -33 13 0 20 7 20 20 0 19 -20 27 -33
13z"/>
<path d="M2261 1801 c-16 -10 -6 -31 15 -31 8 0 14 9 14 20 0 22 -7 25 -29 11z"/>
<path d="M1514 1779 c-10 -17 13 -36 27 -22 12 12 4 33 -11 33 -5 0 -12 -5
-16 -11z"/>
<path d="M1580 1760 c0 -15 5 -20 18 -18 9 2 17 10 17 18 0 8 -8 16 -17 18
-13 2 -18 -3 -18 -18z"/>
<path d="M1480 1257 c0 -7 8 -36 17 -62 l16 -50 18 50 c25 71 24 75 -16 75
-22 0 -35 -5 -35 -13z"/>
<path d="M1880 1264 c0 -14 24 -90 31 -98 6 -6 39 80 39 101 0 2 -16 3 -35 3
-19 0 -35 -3 -35 -6z"/>
<path d="M2278 1264 c-3 -3 0 -22 7 -42 8 -20 17 -46 20 -57 5 -16 11 -8 24
35 10 30 16 58 14 63 -5 8 -57 10 -65 1z"/>
<path d="M1380 1136 c0 -20 5 -36 11 -36 23 0 99 23 99 30 0 4 -19 13 -42 19
-24 7 -49 15 -55 17 -9 4 -13 -5 -13 -30z"/>
<path d="M1588 1152 c-27 -8 -48 -19 -48 -22 0 -4 18 -12 41 -19 23 -7 47 -15
55 -18 11 -4 14 5 14 36 0 23 -3 41 -7 40 -5 0 -29 -8 -55 -17z"/>
<path d="M1780 1134 c0 -29 3 -34 18 -30 9 2 37 10 61 17 l44 13 -49 17 c-70
25 -74 24 -74 -17z"/>
<path d="M1976 1153 l-50 -15 31 -13 c16 -7 44 -16 61 -20 31 -6 32 -6 32 29
0 40 -2 41 -74 19z"/>
<path d="M2180 1129 c0 -44 -4 -44 80 -14 37 14 38 13 -37 39 l-43 15 0 -40z"/>
<path d="M2385 1148 c-16 -5 -37 -12 -45 -15 -11 -3 84 -41 108 -43 1 0 2 16
2 35 0 38 -10 42 -65 23z"/>
<path d="M1897 1073 c-24 -67 -22 -73 18 -73 40 0 41 4 16 73 l-17 48 -17 -48z"/>
<path d="M1507 1100 c-34 -105 -35 -100 8 -100 34 0 35 1 29 28 -13 51 -32 88
-37 72z"/>
<path d="M2306 1100 c-3 -8 -12 -34 -20 -57 l-15 -43 39 0 39 0 -10 33 c-26
81 -26 82 -33 67z"/>
<path d="M682 2802 c-32 -46 -32 -49 -8 -66 24 -15 25 -14 45 18 26 41 26 53
2 66 -16 8 -23 5 -39 -18z"/>
<path d="M3212 2581 c-11 -7 -11 -14 1 -43 19 -44 35 -55 54 -35 13 13 13 20
2 51 -13 36 -31 44 -57 27z"/>
<path d="M457 2074 c-4 -4 -7 -27 -7 -51 0 -41 1 -43 31 -43 30 0 30 1 27 48
-2 38 -7 48 -23 50 -12 2 -24 0 -28 -4z"/>
<path d="M3280 2030 c0 -23 6 -24 39 -6 l23 13 -23 6 c-36 10 -39 9 -39 -13z"/>
<path d="M3295 1779 c-8 -45 2 -63 31 -57 12 2 21 16 26 42 9 45 11 41 -24 50
-24 6 -27 3 -33 -35z"/>
<path d="M2765 990 c-18 -20 -18 -21 5 -45 l24 -25 23 22 c27 25 28 31 7 52
-21 21 -37 20 -59 -4z"/>
<path d="M1401 718 c-6 -17 -10 -32 -9 -33 24 -19 51 -25 64 -14 23 19 17 54
-11 67 -34 16 -31 17 -44 -20z"/>
<path d="M2362 740 c-22 -9 -22 -10 -6 -47 9 -21 23 -57 31 -80 8 -24 21 -43
29 -43 15 0 54 35 54 49 0 18 -24 78 -42 104 -21 29 -30 31 -66 17z"/>
<path d="M1626 649 c-7 -38 -8 -36 24 -39 45 -4 50 -1 50 30 0 23 -5 30 -19
30 -11 0 -26 2 -34 6 -10 3 -16 -5 -21 -27z"/>
</g>
</svg>
